<mxfile host="65bd71144e">
    <diagram id="E9SxX19eNgA6MUTyjjO6" name="Icon-黑白">
        <mxGraphModel dx="354" dy="274" grid="1" gridSize="10" guides="1" tooltips="1" connect="1" arrows="1" fold="1" page="1" pageScale="1" pageWidth="1169" pageHeight="827" math="0" shadow="0">
            <root>
                <mxCell id="dBwEeFoJ6bCwSJ_cmpG_-0"/>
                <mxCell id="dBwEeFoJ6bCwSJ_cmpG_-1" parent="dBwEeFoJ6bCwSJ_cmpG_-0"/>
                <mxCell id="dBwEeFoJ6bCwSJ_cmpG_-3" value="" style="whiteSpace=wrap;html=1;aspect=fixed;fillColor=#F0F0F0;strokeWidth=5;fontColor=#ffffff;strokeColor=#000000;" parent="dBwEeFoJ6bCwSJ_cmpG_-1" vertex="1">
                    <mxGeometry x="460" y="260" width="120" height="120" as="geometry"/>
                </mxCell>
                <mxCell id="dBwEeFoJ6bCwSJ_cmpG_-4" value="" style="whiteSpace=wrap;html=1;aspect=fixed;fillColor=#F0F0F0;strokeWidth=3;fontColor=#ffffff;strokeColor=#000000;" parent="dBwEeFoJ6bCwSJ_cmpG_-1" vertex="1">
                    <mxGeometry x="483.75" y="283.75" width="72.5" height="72.5" as="geometry"/>
                </mxCell>
                <mxCell id="dBwEeFoJ6bCwSJ_cmpG_-5" value="" style="ellipse;whiteSpace=wrap;html=1;aspect=fixed;strokeWidth=2;fillColor=none;strokeColor=#F0F0F0;" parent="dBwEeFoJ6bCwSJ_cmpG_-1" vertex="1">
                    <mxGeometry x="470" y="270" width="10" height="10" as="geometry"/>
                </mxCell>
                <mxCell id="dBwEeFoJ6bCwSJ_cmpG_-6" value="" style="ellipse;whiteSpace=wrap;html=1;aspect=fixed;strokeWidth=2;fillColor=none;strokeColor=#000000;" parent="dBwEeFoJ6bCwSJ_cmpG_-1" vertex="1">
                    <mxGeometry x="470" y="360" width="10" height="10" as="geometry"/>
                </mxCell>
                <mxCell id="dBwEeFoJ6bCwSJ_cmpG_-7" value="" style="ellipse;whiteSpace=wrap;html=1;aspect=fixed;strokeWidth=2;fillColor=none;strokeColor=#000000;" parent="dBwEeFoJ6bCwSJ_cmpG_-1" vertex="1">
                    <mxGeometry x="560" y="360" width="10" height="10" as="geometry"/>
                </mxCell>
                <mxCell id="dBwEeFoJ6bCwSJ_cmpG_-8" value="" style="ellipse;whiteSpace=wrap;html=1;aspect=fixed;strokeWidth=2;fillColor=none;strokeColor=#F0F0F0;" parent="dBwEeFoJ6bCwSJ_cmpG_-1" vertex="1">
                    <mxGeometry x="560" y="270" width="10" height="10" as="geometry"/>
                </mxCell>
                <mxCell id="dBwEeFoJ6bCwSJ_cmpG_-17" style="edgeStyle=orthogonalEdgeStyle;rounded=0;html=1;exitX=0;exitY=0.75;exitDx=0;exitDy=0;exitPerimeter=0;entryX=1;entryY=0.5;entryDx=0;entryDy=0;fontFamily=Comic Sans MS;fontSize=13;endArrow=none;endFill=0;strokeColor=#000000;" parent="dBwEeFoJ6bCwSJ_cmpG_-1" source="dBwEeFoJ6bCwSJ_cmpG_-9" target="dBwEeFoJ6bCwSJ_cmpG_-12" edge="1">
                    <mxGeometry relative="1" as="geometry"/>
                </mxCell>
                <mxCell id="dBwEeFoJ6bCwSJ_cmpG_-9" value="" style="verticalLabelPosition=bottom;shadow=0;dashed=0;align=center;html=1;verticalAlign=top;shape=mxgraph.electrical.logic_gates.logic_gate;operation=and;strokeWidth=1;fillColor=#000000;strokeColor=#000000;" parent="dBwEeFoJ6bCwSJ_cmpG_-1" vertex="1">
                    <mxGeometry x="520" y="312" width="30" height="15" as="geometry"/>
                </mxCell>
                <mxCell id="dBwEeFoJ6bCwSJ_cmpG_-10" value="&lt;font face=&quot;Comic Sans MS&quot; size=&quot;1&quot;&gt;&lt;b style=&quot;font-size: 13px&quot;&gt;Digtal-IDE&lt;/b&gt;&lt;/font&gt;" style="text;html=1;strokeColor=none;fillColor=none;align=center;verticalAlign=middle;whiteSpace=wrap;rounded=0;fontColor=#000000;" parent="dBwEeFoJ6bCwSJ_cmpG_-1" vertex="1">
                    <mxGeometry x="483.75" y="340" width="72.5" height="10" as="geometry"/>
                </mxCell>
                <mxCell id="dBwEeFoJ6bCwSJ_cmpG_-16" style="edgeStyle=orthogonalEdgeStyle;rounded=0;html=1;exitX=1;exitY=0.5;exitDx=0;exitDy=0;entryX=0;entryY=0.25;entryDx=0;entryDy=0;entryPerimeter=0;fontFamily=Comic Sans MS;fontSize=8;endArrow=none;endFill=0;strokeColor=#000000;" parent="dBwEeFoJ6bCwSJ_cmpG_-1" source="dBwEeFoJ6bCwSJ_cmpG_-11" target="dBwEeFoJ6bCwSJ_cmpG_-9" edge="1">
                    <mxGeometry relative="1" as="geometry">
                        <Array as="points">
                            <mxPoint x="515" y="305"/>
                            <mxPoint x="515" y="316"/>
                        </Array>
                    </mxGeometry>
                </mxCell>
                <mxCell id="dBwEeFoJ6bCwSJ_cmpG_-11" value="" style="whiteSpace=wrap;html=1;aspect=fixed;fontFamily=Comic Sans MS;fontSize=8;strokeWidth=1;fillColor=default;" parent="dBwEeFoJ6bCwSJ_cmpG_-1" vertex="1">
                    <mxGeometry x="500" y="300" width="10" height="10" as="geometry"/>
                </mxCell>
                <mxCell id="dBwEeFoJ6bCwSJ_cmpG_-12" value="" style="whiteSpace=wrap;html=1;aspect=fixed;fontFamily=Comic Sans MS;fontSize=8;strokeWidth=1;fillColor=default;" parent="dBwEeFoJ6bCwSJ_cmpG_-1" vertex="1">
                    <mxGeometry x="500" y="318.5" width="10" height="10" as="geometry"/>
                </mxCell>
                <mxCell id="0" value="" style="whiteSpace=wrap;html=1;aspect=fixed;fontFamily=Comic Sans MS;fontSize=8;strokeWidth=1;fillColor=#000000;strokeColor=#000000;" vertex="1" parent="dBwEeFoJ6bCwSJ_cmpG_-1">
                    <mxGeometry x="500" y="318.5" width="10" height="10" as="geometry"/>
                </mxCell>
                <mxCell id="1" value="" style="whiteSpace=wrap;html=1;aspect=fixed;fontFamily=Comic Sans MS;fontSize=8;strokeWidth=1;fillColor=#000000;strokeColor=#000000;" vertex="1" parent="dBwEeFoJ6bCwSJ_cmpG_-1">
                    <mxGeometry x="500" y="300" width="10" height="10" as="geometry"/>
                </mxCell>
                <mxCell id="2" value="" style="ellipse;whiteSpace=wrap;html=1;aspect=fixed;strokeWidth=2;fillColor=none;strokeColor=#000000;" vertex="1" parent="dBwEeFoJ6bCwSJ_cmpG_-1">
                    <mxGeometry x="470" y="270" width="10" height="10" as="geometry"/>
                </mxCell>
                <mxCell id="3" value="" style="ellipse;whiteSpace=wrap;html=1;aspect=fixed;strokeWidth=2;fillColor=none;strokeColor=#000000;" vertex="1" parent="dBwEeFoJ6bCwSJ_cmpG_-1">
                    <mxGeometry x="560" y="270" width="10" height="10" as="geometry"/>
                </mxCell>
            </root>
        </mxGraphModel>
    </diagram>
    <diagram id="Uvtx_EFygcFVrGt_DP7c" name="当前框架">
        <mxGraphModel dx="744" dy="575" grid="1" gridSize="10" guides="1" tooltips="1" connect="1" arrows="1" fold="1" page="1" pageScale="1" pageWidth="2336" pageHeight="1654" math="0" shadow="0">
            <root>
                <mxCell id="0"/>
                <mxCell id="1" parent="0"/>
                <mxCell id="8" value="" style="edgeStyle=orthogonalEdgeStyle;rounded=0;orthogonalLoop=1;jettySize=auto;html=1;startArrow=none;startFill=0;endArrow=classic;endFill=1;" parent="1" source="2" target="7" edge="1">
                    <mxGeometry relative="1" as="geometry"/>
                </mxCell>
                <mxCell id="2" value="&lt;font style=&quot;font-size: 16px&quot;&gt;初始化&lt;/font&gt;" style="rounded=0;whiteSpace=wrap;html=1;fillColor=none;" parent="1" vertex="1">
                    <mxGeometry x="920" y="480" width="100" height="60" as="geometry"/>
                </mxCell>
                <mxCell id="36" value="" style="edgeStyle=orthogonalEdgeStyle;rounded=0;orthogonalLoop=1;jettySize=auto;html=1;startArrow=none;startFill=0;endArrow=classic;endFill=1;" parent="1" source="3" target="2" edge="1">
                    <mxGeometry relative="1" as="geometry"/>
                </mxCell>
                <mxCell id="3" value="&lt;font style=&quot;font-size: 16px&quot;&gt;首先获取&lt;br&gt;系统参数&lt;/font&gt;" style="rounded=0;whiteSpace=wrap;html=1;fillColor=none;" parent="1" vertex="1">
                    <mxGeometry x="1110" y="520" width="120" height="60" as="geometry"/>
                </mxCell>
                <mxCell id="37" value="" style="edgeStyle=orthogonalEdgeStyle;rounded=0;orthogonalLoop=1;jettySize=auto;html=1;startArrow=none;startFill=0;endArrow=classic;endFill=1;" parent="1" source="5" target="2" edge="1">
                    <mxGeometry relative="1" as="geometry"/>
                </mxCell>
                <mxCell id="5" value="向VScode注册&lt;br&gt;基础服务" style="rounded=0;whiteSpace=wrap;html=1;fillColor=none;" parent="1" vertex="1">
                    <mxGeometry x="740" y="480" width="120" height="60" as="geometry"/>
                </mxCell>
                <mxCell id="10" value="" style="edgeStyle=orthogonalEdgeStyle;rounded=0;orthogonalLoop=1;jettySize=auto;html=1;startArrow=none;startFill=0;endArrow=classic;endFill=1;" parent="1" source="7" target="9" edge="1">
                    <mxGeometry relative="1" as="geometry"/>
                </mxCell>
                <mxCell id="14" value="" style="edgeStyle=orthogonalEdgeStyle;rounded=0;orthogonalLoop=1;jettySize=auto;html=1;startArrow=classic;startFill=1;endArrow=none;endFill=0;" parent="1" source="7" target="13" edge="1">
                    <mxGeometry relative="1" as="geometry"/>
                </mxCell>
                <mxCell id="7" value="对工程中所有HDL文件进行检索解析" style="rounded=0;whiteSpace=wrap;html=1;fillColor=none;" parent="1" vertex="1">
                    <mxGeometry x="910" y="640" width="120" height="60" as="geometry"/>
                </mxCell>
                <mxCell id="12" value="" style="edgeStyle=orthogonalEdgeStyle;rounded=0;orthogonalLoop=1;jettySize=auto;html=1;startArrow=none;startFill=0;endArrow=classic;endFill=1;" parent="1" source="9" target="11" edge="1">
                    <mxGeometry relative="1" as="geometry"/>
                </mxCell>
                <mxCell id="41" style="edgeStyle=orthogonalEdgeStyle;rounded=0;orthogonalLoop=1;jettySize=auto;html=1;exitX=1;exitY=0.5;exitDx=0;exitDy=0;startArrow=none;startFill=0;endArrow=classic;endFill=1;" parent="1" source="9" edge="1">
                    <mxGeometry relative="1" as="geometry">
                        <mxPoint x="1030" y="670" as="targetPoint"/>
                        <Array as="points">
                            <mxPoint x="1080" y="790"/>
                            <mxPoint x="1080" y="670"/>
                        </Array>
                    </mxGeometry>
                </mxCell>
                <mxCell id="9" value="启动文件检测系统&lt;br&gt;在HDL文件改动时&lt;br&gt;重新检测" style="rounded=0;whiteSpace=wrap;html=1;fillColor=none;" parent="1" vertex="1">
                    <mxGeometry x="910" y="760" width="120" height="60" as="geometry"/>
                </mxCell>
                <mxCell id="78" value="" style="edgeStyle=orthogonalEdgeStyle;rounded=0;orthogonalLoop=1;jettySize=auto;html=1;startArrow=none;startFill=0;endArrow=classic;endFill=1;" parent="1" source="11" target="77" edge="1">
                    <mxGeometry relative="1" as="geometry"/>
                </mxCell>
                <mxCell id="11" value="向VScode注册&lt;br&gt;其他需要HDL文件信息的工具服务" style="rounded=0;whiteSpace=wrap;html=1;fillColor=none;" parent="1" vertex="1">
                    <mxGeometry x="910" y="880" width="120" height="60" as="geometry"/>
                </mxCell>
                <mxCell id="13" value="&lt;font color=&quot;#007fff&quot; style=&quot;font-size: 18px&quot;&gt;HDLparser&lt;/font&gt; 提供解析功能" style="rounded=0;whiteSpace=wrap;html=1;fillColor=none;" parent="1" vertex="1">
                    <mxGeometry x="1130" y="650" width="120" height="70" as="geometry"/>
                </mxCell>
                <mxCell id="16" value="" style="edgeStyle=orthogonalEdgeStyle;rounded=0;orthogonalLoop=1;jettySize=auto;html=1;startArrow=none;startFill=0;endArrow=classic;endFill=1;" parent="1" source="15" target="13" edge="1">
                    <mxGeometry relative="1" as="geometry"/>
                </mxCell>
                <mxCell id="15" value="&lt;font color=&quot;#cc6600&quot;&gt;RegExp&lt;/font&gt;" style="shape=cylinder3;whiteSpace=wrap;html=1;boundedLbl=1;backgroundOutline=1;size=15;fillColor=none;" parent="1" vertex="1">
                    <mxGeometry x="1320" y="640" width="60" height="50" as="geometry"/>
                </mxCell>
                <mxCell id="18" value="" style="edgeStyle=orthogonalEdgeStyle;rounded=0;orthogonalLoop=1;jettySize=auto;html=1;startArrow=none;startFill=0;endArrow=classic;endFill=1;" parent="1" source="17" target="13" edge="1">
                    <mxGeometry relative="1" as="geometry"/>
                </mxCell>
                <mxCell id="17" value="&lt;font color=&quot;#cc6600&quot;&gt;TreeSitter&lt;/font&gt;" style="shape=cylinder3;whiteSpace=wrap;html=1;boundedLbl=1;backgroundOutline=1;size=15;fillColor=none;" parent="1" vertex="1">
                    <mxGeometry x="1320" y="700" width="60" height="50" as="geometry"/>
                </mxCell>
                <mxCell id="24" value="" style="edgeStyle=orthogonalEdgeStyle;rounded=0;orthogonalLoop=1;jettySize=auto;html=1;startArrow=none;startFill=0;endArrow=classic;endFill=1;" parent="1" source="19" target="17" edge="1">
                    <mxGeometry relative="1" as="geometry"/>
                </mxCell>
                <mxCell id="19" value="&lt;font color=&quot;#ff3333&quot;&gt;TreeSitter&lt;/font&gt;" style="shape=cylinder3;whiteSpace=wrap;html=1;boundedLbl=1;backgroundOutline=1;size=15;fillColor=none;" parent="1" vertex="1">
                    <mxGeometry x="1440" y="665" width="60" height="50" as="geometry"/>
                </mxCell>
                <mxCell id="20" value="" style="rounded=0;whiteSpace=wrap;html=1;fillColor=none;dashed=1;" parent="1" vertex="1">
                    <mxGeometry x="1298" y="610" width="102" height="150" as="geometry"/>
                </mxCell>
                <mxCell id="21" value="&lt;font color=&quot;#cc6600&quot;&gt;带parser前缀&lt;/font&gt;" style="text;html=1;strokeColor=none;fillColor=none;align=center;verticalAlign=middle;whiteSpace=wrap;rounded=0;dashed=1;" parent="1" vertex="1">
                    <mxGeometry x="1308" y="610" width="82" height="20" as="geometry"/>
                </mxCell>
                <mxCell id="25" value="" style="edgeStyle=orthogonalEdgeStyle;rounded=0;orthogonalLoop=1;jettySize=auto;html=1;startArrow=none;startFill=0;endArrow=classic;endFill=1;" parent="1" source="22" target="17" edge="1">
                    <mxGeometry relative="1" as="geometry"/>
                </mxCell>
                <mxCell id="22" value="&lt;font color=&quot;#ff3333&quot;&gt;resources&lt;/font&gt;" style="shape=cylinder3;whiteSpace=wrap;html=1;boundedLbl=1;backgroundOutline=1;size=15;fillColor=none;" parent="1" vertex="1">
                    <mxGeometry x="1440" y="730" width="60" height="50" as="geometry"/>
                </mxCell>
                <mxCell id="27" value="" style="edgeStyle=orthogonalEdgeStyle;rounded=0;orthogonalLoop=1;jettySize=auto;html=1;startArrow=none;startFill=0;endArrow=classic;endFill=1;" parent="1" source="26" target="13" edge="1">
                    <mxGeometry relative="1" as="geometry"/>
                </mxCell>
                <mxCell id="26" value="&lt;font color=&quot;#cc6600&quot; style=&quot;font-size: 16px&quot;&gt;util&lt;/font&gt; 文件夹&lt;br&gt;提供解析函数的总调用和解析过程中通用的函数" style="rounded=1;whiteSpace=wrap;html=1;fillColor=none;" parent="1" vertex="1">
                    <mxGeometry x="1130" y="760" width="120" height="70" as="geometry"/>
                </mxCell>
                <mxCell id="35" value="" style="edgeStyle=orthogonalEdgeStyle;rounded=0;orthogonalLoop=1;jettySize=auto;html=1;startArrow=none;startFill=0;endArrow=classic;endFill=1;" parent="1" source="30" target="3" edge="1">
                    <mxGeometry relative="1" as="geometry"/>
                </mxCell>
                <mxCell id="30" value="&lt;font color=&quot;#007fff&quot; style=&quot;font-size: 18px&quot;&gt;HDLfilesys&lt;/font&gt;文件夹所提供&lt;br&gt;主要只有ope/prj.js文件中的&lt;br&gt;getOpeParam函数" style="rounded=0;whiteSpace=wrap;html=1;fillColor=none;" parent="1" vertex="1">
                    <mxGeometry x="1280" y="520" width="170" height="60" as="geometry"/>
                </mxCell>
                <mxCell id="32" value="" style="edgeStyle=orthogonalEdgeStyle;rounded=0;orthogonalLoop=1;jettySize=auto;html=1;startArrow=none;startFill=0;endArrow=classic;endFill=1;curved=1;" parent="1" source="31" target="19" edge="1">
                    <mxGeometry relative="1" as="geometry"/>
                </mxCell>
                <mxCell id="31" value="&lt;h1&gt;&lt;span style=&quot;font-weight: 400 ; text-align: center&quot;&gt;&lt;font style=&quot;font-size: 24px&quot;&gt;TreeSitter&lt;/font&gt;&lt;/span&gt;&lt;br&gt;&lt;/h1&gt;&lt;p&gt;&lt;span style=&quot;text-align: center&quot;&gt;tree-sitter文件夹用于提供&lt;/span&gt;&lt;/p&gt;&lt;span style=&quot;text-align: center&quot;&gt;TreeSitter源码，工程开源于github该源码已加密打包。&lt;/span&gt;" style="text;html=1;spacing=5;spacingTop=-20;whiteSpace=wrap;overflow=hidden;rounded=0;strokeColor=#f0f0f0;" parent="1" vertex="1">
                    <mxGeometry x="1560" y="590" width="190" height="110" as="geometry"/>
                </mxCell>
                <mxCell id="34" value="" style="edgeStyle=orthogonalEdgeStyle;rounded=0;orthogonalLoop=1;jettySize=auto;html=1;startArrow=none;startFill=0;endArrow=classic;endFill=1;curved=1;" parent="1" source="33" target="22" edge="1">
                    <mxGeometry relative="1" as="geometry"/>
                </mxCell>
                <mxCell id="33" value="&lt;h1&gt;&lt;span style=&quot;font-weight: 400 ; text-align: center&quot;&gt;&lt;font style=&quot;font-size: 24px&quot;&gt;resources&lt;/font&gt;&lt;/span&gt;&lt;br&gt;&lt;/h1&gt;&lt;span style=&quot;text-align: center&quot;&gt;resources&lt;/span&gt;&lt;span style=&quot;text-align: center&quot;&gt;文件夹用于提供对于&lt;/span&gt;&lt;span style=&quot;text-align: center&quot;&gt;&lt;br&gt;&lt;/span&gt;&lt;span style=&quot;text-align: center&quot;&gt;TreeSitter进行解析的wasm文件，包括tree-sitter自己解析wasm文件还包括Verilog和VHDL文件解析wasm文件。&lt;/span&gt;" style="text;html=1;spacing=5;spacingTop=-20;whiteSpace=wrap;overflow=hidden;rounded=0;strokeColor=#f0f0f0;" parent="1" vertex="1">
                    <mxGeometry x="1550" y="750" width="190" height="130" as="geometry"/>
                </mxCell>
                <mxCell id="40" value="" style="edgeStyle=orthogonalEdgeStyle;rounded=0;orthogonalLoop=1;jettySize=auto;html=1;startArrow=none;startFill=0;endArrow=classic;endFill=1;curved=1;" parent="1" source="39" target="20" edge="1">
                    <mxGeometry relative="1" as="geometry"/>
                </mxCell>
                <mxCell id="39" value="&lt;h1&gt;&lt;font color=&quot;#33ff33&quot;&gt;Parser&lt;/font&gt;&lt;/h1&gt;&lt;p&gt;解析方案目前提供两种，目前发布的是使用的正则表达式准备换成使用tree-sitter的方案，但需要检测tree-sitter的性能。&lt;/p&gt;" style="text;html=1;fillColor=none;spacing=5;spacingTop=-20;whiteSpace=wrap;overflow=hidden;rounded=0;strokeColor=#f0f0f0;" parent="1" vertex="1">
                    <mxGeometry x="1340" y="850" width="190" height="120" as="geometry"/>
                </mxCell>
                <mxCell id="42" value="检测到HDL文件改动时" style="text;html=1;fillColor=none;align=center;verticalAlign=middle;whiteSpace=wrap;rounded=0;strokeColor=#f0f0f0;dashed=1;dashPattern=1 4;" parent="1" vertex="1">
                    <mxGeometry x="1000" y="715" width="80" height="30" as="geometry"/>
                </mxCell>
                <mxCell id="44" style="edgeStyle=orthogonalEdgeStyle;rounded=0;orthogonalLoop=1;jettySize=auto;html=1;exitX=0;exitY=0.25;exitDx=0;exitDy=0;startArrow=none;startFill=0;endArrow=classic;endFill=1;entryX=1;entryY=0.5;entryDx=0;entryDy=0;curved=1;" parent="1" source="43" target="42" edge="1">
                    <mxGeometry relative="1" as="geometry">
                        <mxPoint x="1080" y="750" as="targetPoint"/>
                        <Array as="points">
                            <mxPoint x="1100" y="918"/>
                            <mxPoint x="1100" y="730"/>
                        </Array>
                    </mxGeometry>
                </mxCell>
                <mxCell id="43" value="&lt;h1&gt;&lt;font color=&quot;#33ff33&quot;&gt;工程参数刷新&lt;/font&gt;&lt;/h1&gt;&lt;p&gt;目前所执行的方案是检测到有HDL文件有变动就对该工程下所有HDL文件全部重新检测（即index.build()函数）再重新生成结构树。后期需要优化&lt;/p&gt;" style="text;html=1;fillColor=none;spacing=5;spacingTop=-20;whiteSpace=wrap;overflow=hidden;rounded=0;strokeColor=#f0f0f0;" parent="1" vertex="1">
                    <mxGeometry x="1118" y="880" width="162" height="150" as="geometry"/>
                </mxCell>
                <mxCell id="46" value="" style="edgeStyle=orthogonalEdgeStyle;rounded=0;orthogonalLoop=1;jettySize=auto;html=1;startArrow=none;startFill=0;endArrow=classic;endFill=1;" parent="1" source="45" target="5" edge="1">
                    <mxGeometry relative="1" as="geometry"/>
                </mxCell>
                <mxCell id="52c16BeU2dZ0UimsJp-p-83" style="edgeStyle=orthogonalEdgeStyle;curved=1;rounded=0;orthogonalLoop=1;jettySize=auto;html=1;exitX=0.5;exitY=1;exitDx=0;exitDy=0;entryX=0;entryY=0.25;entryDx=0;entryDy=0;strokeColor=#FFFFFF;" parent="1" source="45" target="11" edge="1">
                    <mxGeometry relative="1" as="geometry">
                        <Array as="points">
                            <mxPoint x="800" y="760"/>
                            <mxPoint x="860" y="760"/>
                            <mxPoint x="860" y="895"/>
                        </Array>
                    </mxGeometry>
                </mxCell>
                <mxCell id="45" value="&lt;font color=&quot;#007fff&quot; style=&quot;font-size: 18px&quot;&gt;HDLtool&lt;/font&gt; &lt;br&gt;提供工程所需的服务&lt;br&gt;（除语法检测）" style="rounded=0;whiteSpace=wrap;html=1;fillColor=none;" parent="1" vertex="1">
                    <mxGeometry x="740" y="620" width="120" height="70" as="geometry"/>
                </mxCell>
                <mxCell id="50" value="" style="edgeStyle=orthogonalEdgeStyle;rounded=0;orthogonalLoop=1;jettySize=auto;html=1;startArrow=none;startFill=0;endArrow=classic;endFill=1;" parent="1" source="47" target="45" edge="1">
                    <mxGeometry relative="1" as="geometry"/>
                </mxCell>
                <mxCell id="47" value="&lt;font color=&quot;#cc6600&quot;&gt;build&lt;/font&gt;" style="shape=cylinder3;whiteSpace=wrap;html=1;boundedLbl=1;backgroundOutline=1;size=15;fillColor=none;" parent="1" vertex="1">
                    <mxGeometry x="590" y="600" width="60" height="50" as="geometry"/>
                </mxCell>
                <mxCell id="51" value="" style="edgeStyle=orthogonalEdgeStyle;rounded=0;orthogonalLoop=1;jettySize=auto;html=1;startArrow=none;startFill=0;endArrow=classic;endFill=1;" parent="1" source="48" target="45" edge="1">
                    <mxGeometry relative="1" as="geometry"/>
                </mxCell>
                <mxCell id="48" value="&lt;font color=&quot;#cc6600&quot;&gt;debug&lt;/font&gt;" style="shape=cylinder3;whiteSpace=wrap;html=1;boundedLbl=1;backgroundOutline=1;size=15;fillColor=none;" parent="1" vertex="1">
                    <mxGeometry x="590" y="665" width="60" height="50" as="geometry"/>
                </mxCell>
                <mxCell id="52" value="" style="edgeStyle=orthogonalEdgeStyle;rounded=0;orthogonalLoop=1;jettySize=auto;html=1;startArrow=none;startFill=0;endArrow=classic;endFill=1;" parent="1" source="49" target="45" edge="1">
                    <mxGeometry relative="1" as="geometry">
                        <Array as="points">
                            <mxPoint x="695" y="755"/>
                            <mxPoint x="695" y="655"/>
                        </Array>
                    </mxGeometry>
                </mxCell>
                <mxCell id="49" value="&lt;font color=&quot;#cc6600&quot;&gt;部分tree&lt;/font&gt;" style="shape=cylinder3;whiteSpace=wrap;html=1;boundedLbl=1;backgroundOutline=1;size=15;fillColor=none;" parent="1" vertex="1">
                    <mxGeometry x="590" y="730" width="60" height="50" as="geometry"/>
                </mxCell>
                <mxCell id="56" value="" style="edgeStyle=orthogonalEdgeStyle;rounded=0;orthogonalLoop=1;jettySize=auto;html=1;startArrow=none;startFill=0;endArrow=classic;endFill=1;entryX=0;entryY=0.5;entryDx=0;entryDy=0;" parent="1" source="54" target="45" edge="1">
                    <mxGeometry relative="1" as="geometry"/>
                </mxCell>
                <mxCell id="54" value="&lt;font color=&quot;#cc6600&quot;&gt;soc&lt;/font&gt;" style="shape=cylinder3;whiteSpace=wrap;html=1;boundedLbl=1;backgroundOutline=1;size=15;fillColor=none;" parent="1" vertex="1">
                    <mxGeometry x="590" y="540" width="60" height="50" as="geometry"/>
                </mxCell>
                <mxCell id="57" value="" style="rounded=0;whiteSpace=wrap;html=1;dashed=1;strokeColor=#f0f0f0;fillColor=none;" parent="1" vertex="1">
                    <mxGeometry x="530" y="490" width="150" height="300" as="geometry"/>
                </mxCell>
                <mxCell id="61" value="该四个服务不需要用到HDL工程树(即&lt;font color=&quot;#ffff00&quot;&gt;HDLparam&lt;/font&gt;数组)的工程服务" style="text;html=1;strokeColor=none;fillColor=none;align=center;verticalAlign=middle;whiteSpace=wrap;rounded=0;dashed=1;" parent="1" vertex="1">
                    <mxGeometry x="530" y="490" width="150" height="40" as="geometry"/>
                </mxCell>
                <mxCell id="62" value="得到HDL工程树&lt;br&gt;(即&lt;font color=&quot;#ffff00&quot;&gt;HDLparam&lt;/font&gt;数组)" style="text;html=1;fillColor=none;align=center;verticalAlign=middle;whiteSpace=wrap;rounded=0;strokeColor=#f0f0f0;dashed=1;dashPattern=1 4;" parent="1" vertex="1">
                    <mxGeometry x="860" y="715" width="110" height="30" as="geometry"/>
                </mxCell>
                <mxCell id="66" style="edgeStyle=orthogonalEdgeStyle;rounded=0;orthogonalLoop=1;jettySize=auto;html=1;exitX=0;exitY=0.75;exitDx=0;exitDy=0;entryX=0.5;entryY=0;entryDx=0;entryDy=0;startArrow=none;startFill=0;endArrow=classic;endFill=1;curved=1;" parent="1" source="63" target="3" edge="1">
                    <mxGeometry relative="1" as="geometry">
                        <Array as="points">
                            <mxPoint x="1240" y="490"/>
                            <mxPoint x="1170" y="490"/>
                        </Array>
                    </mxGeometry>
                </mxCell>
                <mxCell id="63" value="&lt;h1&gt;系统参数&lt;/h1&gt;&lt;p&gt;详见该工程根目录下的&amp;nbsp;&lt;b&gt;&lt;font color=&quot;#ffff00&quot;&gt;prjInitProperty.json&lt;/font&gt;&lt;font color=&quot;#ffffff&quot;&gt;文件中的&lt;/font&gt;&lt;font color=&quot;#ffff00&quot;&gt; opeParam&lt;/font&gt;&lt;font color=&quot;#ffffff&quot;&gt;对象。&lt;/font&gt;&lt;/b&gt;&lt;/p&gt;&lt;p&gt;&lt;b&gt;&lt;font color=&quot;#ffffff&quot;&gt;【注】：剩下的对象全是工程中所要用到的全局参数对象，且&lt;/font&gt;&lt;font color=&quot;#ffff00&quot;&gt;HDLparam&lt;/font&gt;&lt;font color=&quot;#ffffff&quot;&gt;数组中包含的是每个HDL文件的&lt;/font&gt;&lt;font color=&quot;#ffff00&quot;&gt;HDLfileparam&lt;/font&gt;&lt;font color=&quot;#ffffff&quot;&gt;对象，该对象具体内容在json文件已详细说明&lt;/font&gt;&lt;/b&gt;&lt;/p&gt;&lt;span style=&quot;color: rgba(0 , 0 , 0 , 0) ; font-family: monospace ; font-size: 0px&quot;&gt;%3CmxGraphModel%3E%3Croot%3E%3CmxCell%20id%3D%220%22%2F%3E%3CmxCell%20id%3D%221%22%20parent%3D%220%22%2F%3E%3CmxCell%20id%3D%222%22%20value%3D%22%E5%90%91VScode%E6%B3%A8%E5%86%8C%26lt%3Bbr%26gt%3B%E5%85%B6%E4%BB%96%E9%9C%80%E8%A6%81HDL%E6%96%87%E4%BB%B6%E4%BF%A1%E6%81%AF%E7%9A%84%E5%B7%A5%E5%85%B7%E6%9C%8D%E5%8A%A1%22%20style%3D%22rounded%3D0%3BwhiteSpace%3Dwrap%3Bhtml%3D1%3BfillColor%3Dnone%3B%22%20vertex%3D%221%22%20parent%3D%221%22%3E%3CmxGeometry%20x%3D%22910%22%20y%3D%22880%22%20width%3D%22120%22%20height%3D%2260%22%20as%3D%22geometry%22%2F%3E%3C%2FmxCell%3E%3C%2Froot%3E%3C%2FmxGraphModel%3E&lt;/span&gt;" style="text;html=1;fillColor=none;spacing=5;spacingTop=-20;whiteSpace=wrap;overflow=hidden;rounded=0;strokeColor=#f0f0f0;" parent="1" vertex="1">
                    <mxGeometry x="1240" y="340" width="310" height="150" as="geometry"/>
                </mxCell>
                <mxCell id="67" value="&lt;font color=&quot;#cc6600&quot;&gt;File tree&lt;/font&gt;" style="shape=cylinder3;whiteSpace=wrap;html=1;boundedLbl=1;backgroundOutline=1;size=15;fillColor=none;" parent="1" vertex="1">
                    <mxGeometry x="720" y="980" width="60" height="50" as="geometry"/>
                </mxCell>
                <mxCell id="68" value="&lt;font color=&quot;#cc6600&quot;&gt;lsp&lt;/font&gt;" style="shape=cylinder3;whiteSpace=wrap;html=1;boundedLbl=1;backgroundOutline=1;size=15;fillColor=none;" parent="1" vertex="1">
                    <mxGeometry x="720" y="860" width="60" height="50" as="geometry"/>
                </mxCell>
                <mxCell id="69" value="&lt;font color=&quot;#cc6600&quot;&gt;sim&lt;/font&gt;" style="shape=cylinder3;whiteSpace=wrap;html=1;boundedLbl=1;backgroundOutline=1;size=15;fillColor=none;" parent="1" vertex="1">
                    <mxGeometry x="610" y="920" width="60" height="50" as="geometry"/>
                </mxCell>
                <mxCell id="70" value="" style="rounded=0;whiteSpace=wrap;html=1;dashed=1;strokeColor=#f0f0f0;fillColor=none;" parent="1" vertex="1">
                    <mxGeometry x="580" y="810" width="220" height="240" as="geometry"/>
                </mxCell>
                <mxCell id="52c16BeU2dZ0UimsJp-p-82" style="edgeStyle=orthogonalEdgeStyle;curved=1;rounded=0;orthogonalLoop=1;jettySize=auto;html=1;exitX=0.5;exitY=0;exitDx=0;exitDy=0;entryX=0.5;entryY=1;entryDx=0;entryDy=0;strokeColor=#FFFFFF;" parent="1" source="71" target="45" edge="1">
                    <mxGeometry relative="1" as="geometry">
                        <Array as="points">
                            <mxPoint x="710" y="760"/>
                            <mxPoint x="800" y="760"/>
                        </Array>
                    </mxGeometry>
                </mxCell>
                <mxCell id="71" value="该三个服务是需要用到HDL工程树(即&lt;font color=&quot;#ffff00&quot;&gt;HDLparam&lt;/font&gt;数组)的工程服务" style="text;html=1;strokeColor=none;fillColor=none;align=center;verticalAlign=middle;whiteSpace=wrap;rounded=0;dashed=1;" parent="1" vertex="1">
                    <mxGeometry x="620" y="810" width="180" height="40" as="geometry"/>
                </mxCell>
                <mxCell id="77" value="向VScode注册&lt;br&gt;HDL文件语法检查服务" style="rounded=0;whiteSpace=wrap;html=1;fillColor=none;" parent="1" vertex="1">
                    <mxGeometry x="905" y="1110" width="130" height="60" as="geometry"/>
                </mxCell>
                <mxCell id="80" value="" style="edgeStyle=orthogonalEdgeStyle;rounded=0;orthogonalLoop=1;jettySize=auto;html=1;startArrow=none;startFill=0;endArrow=classic;endFill=1;" parent="1" source="79" target="77" edge="1">
                    <mxGeometry relative="1" as="geometry"/>
                </mxCell>
                <mxCell id="79" value="&lt;font color=&quot;#007fff&quot; style=&quot;font-size: 18px&quot;&gt;HDLlinter&lt;/font&gt;&lt;br&gt;提供HDL文件的语法检测服务" style="rounded=0;whiteSpace=wrap;html=1;fillColor=none;" parent="1" vertex="1">
                    <mxGeometry x="700" y="1105" width="120" height="70" as="geometry"/>
                </mxCell>
                <mxCell id="82" style="edgeStyle=orthogonalEdgeStyle;rounded=0;orthogonalLoop=1;jettySize=auto;html=1;exitX=1;exitY=1;exitDx=0;exitDy=0;startArrow=none;startFill=0;endArrow=classic;endFill=1;entryX=0;entryY=0;entryDx=0;entryDy=30;entryPerimeter=0;curved=1;" parent="1" source="81" target="68" edge="1">
                    <mxGeometry relative="1" as="geometry">
                        <mxPoint x="549.9999999999998" y="879.9999999999998" as="targetPoint"/>
                        <Array as="points">
                            <mxPoint x="490" y="890"/>
                        </Array>
                    </mxGeometry>
                </mxCell>
                <mxCell id="81" value="&lt;h1&gt;LSP&lt;/h1&gt;&lt;p&gt;vscode所提供的语言服务，具体实现需要参照vscode插件官网所给的教程与API。&lt;/p&gt;&lt;p style=&quot;line-height: 20%&quot;&gt;&lt;font color=&quot;#ffff00&quot;&gt;completion.js&amp;nbsp;&lt;/font&gt;提供的是自动补全&lt;/p&gt;&lt;p style=&quot;line-height: 20%&quot;&gt;&lt;font color=&quot;#ffff00&quot;&gt;provide.js&amp;nbsp;&lt;/font&gt;提供的是悬停、跳转等功能，&lt;/p&gt;&lt;p style=&quot;line-height: 20%&quot;&gt;这些功能需要&lt;font color=&quot;#007fff&quot;&gt;HDLparser&lt;/font&gt;中的index类所&lt;/p&gt;&lt;p style=&quot;line-height: 20%&quot;&gt;生成的symbol 提供&lt;/p&gt;" style="text;html=1;fillColor=none;spacing=5;spacingTop=-20;whiteSpace=wrap;overflow=hidden;rounded=0;strokeColor=#f0f0f0;" parent="1" vertex="1">
                    <mxGeometry x="260" y="700" width="230" height="150" as="geometry"/>
                </mxCell>
            </root>
        </mxGraphModel>
    </diagram>
    <diagram id="HQ9xZqRZMTou116-Q7MH" name="理想框架">
        <mxGraphModel dx="1217" dy="958" grid="1" gridSize="10" guides="1" tooltips="1" connect="1" arrows="1" fold="1" page="1" pageScale="1" pageWidth="2336" pageHeight="1654" math="0" shadow="0">
            <root>
                <mxCell id="qOImLRfctZHwxg6qMuq2-0"/>
                <mxCell id="qOImLRfctZHwxg6qMuq2-1" parent="qOImLRfctZHwxg6qMuq2-0"/>
                <mxCell id="mVjKKUgkW_QFu3QTIU2m-2" style="edgeStyle=orthogonalEdgeStyle;curved=1;rounded=0;orthogonalLoop=1;jettySize=auto;html=1;exitX=0.5;exitY=1;exitDx=0;exitDy=0;entryX=0.5;entryY=1;entryDx=0;entryDy=0;strokeColor=#FFFFFF;" parent="qOImLRfctZHwxg6qMuq2-1" source="qOImLRfctZHwxg6qMuq2-3" target="mVjKKUgkW_QFu3QTIU2m-0" edge="1">
                    <mxGeometry relative="1" as="geometry">
                        <Array as="points">
                            <mxPoint x="1275" y="440"/>
                            <mxPoint x="1465" y="440"/>
                        </Array>
                    </mxGeometry>
                </mxCell>
                <mxCell id="qOImLRfctZHwxg6qMuq2-3" value="" style="rounded=0;whiteSpace=wrap;html=1;fillColor=none;" parent="qOImLRfctZHwxg6qMuq2-1" vertex="1">
                    <mxGeometry x="1200" y="287" width="150" height="113" as="geometry"/>
                </mxCell>
                <mxCell id="WHu56JzcfsG-LeSrM2mb-2" value="&lt;span style=&quot;color: rgb(255 , 255 , 0)&quot;&gt;HDLparam&lt;/span&gt;" style="shape=cylinder3;whiteSpace=wrap;html=1;boundedLbl=1;backgroundOutline=1;size=15;fillColor=none;" parent="qOImLRfctZHwxg6qMuq2-1" vertex="1">
                    <mxGeometry x="980" y="430" width="70" height="50" as="geometry"/>
                </mxCell>
                <mxCell id="PDiKDTpNDZHU_HGJEwD4-1" value="&lt;span style=&quot;color: rgb(255 , 255 , 0)&quot;&gt;HDLsymbol&lt;/span&gt;" style="shape=cylinder3;whiteSpace=wrap;html=1;boundedLbl=1;backgroundOutline=1;size=15;fillColor=none;" parent="qOImLRfctZHwxg6qMuq2-1" vertex="1">
                    <mxGeometry x="1093" y="380" width="70" height="50" as="geometry"/>
                </mxCell>
                <mxCell id="PDiKDTpNDZHU_HGJEwD4-15" value="" style="group" parent="qOImLRfctZHwxg6qMuq2-1" vertex="1" connectable="0">
                    <mxGeometry x="790" y="400" width="180" height="180" as="geometry"/>
                </mxCell>
                <mxCell id="qOImLRfctZHwxg6qMuq2-2" value="" style="rounded=0;whiteSpace=wrap;html=1;fillColor=none;" parent="PDiKDTpNDZHU_HGJEwD4-15" vertex="1">
                    <mxGeometry width="180" height="180" as="geometry"/>
                </mxCell>
                <mxCell id="WHu56JzcfsG-LeSrM2mb-0" value="&lt;font style=&quot;font-size: 16px&quot;&gt;底层处理&lt;/font&gt;" style="text;html=1;strokeColor=none;fillColor=none;align=center;verticalAlign=middle;whiteSpace=wrap;rounded=0;" parent="PDiKDTpNDZHU_HGJEwD4-15" vertex="1">
                    <mxGeometry x="35" y="2" width="110" height="20" as="geometry"/>
                </mxCell>
                <mxCell id="PDiKDTpNDZHU_HGJEwD4-2" value="&lt;font style=&quot;font-size: 16px&quot;&gt;parse&lt;/font&gt;" style="rounded=0;whiteSpace=wrap;html=1;fillColor=none;" parent="PDiKDTpNDZHU_HGJEwD4-15" vertex="1">
                    <mxGeometry y="32" width="180" height="20" as="geometry"/>
                </mxCell>
                <mxCell id="PDiKDTpNDZHU_HGJEwD4-3" value="index_data" style="rounded=0;whiteSpace=wrap;html=1;fillColor=none;" parent="PDiKDTpNDZHU_HGJEwD4-15" vertex="1">
                    <mxGeometry y="80" width="180" height="20" as="geometry"/>
                </mxCell>
                <mxCell id="PDiKDTpNDZHU_HGJEwD4-6" style="edgeStyle=orthogonalEdgeStyle;rounded=0;orthogonalLoop=1;jettySize=auto;html=1;exitX=0.5;exitY=1;exitDx=0;exitDy=0;entryX=0.5;entryY=0;entryDx=0;entryDy=0;" parent="PDiKDTpNDZHU_HGJEwD4-15" source="PDiKDTpNDZHU_HGJEwD4-2" target="PDiKDTpNDZHU_HGJEwD4-3" edge="1">
                    <mxGeometry relative="1" as="geometry"/>
                </mxCell>
                <mxCell id="PDiKDTpNDZHU_HGJEwD4-8" value="AST" style="rounded=0;whiteSpace=wrap;html=1;fillColor=none;" parent="PDiKDTpNDZHU_HGJEwD4-15" vertex="1">
                    <mxGeometry y="120" width="180" height="20" as="geometry"/>
                </mxCell>
                <mxCell id="PDiKDTpNDZHU_HGJEwD4-9" style="edgeStyle=orthogonalEdgeStyle;rounded=0;orthogonalLoop=1;jettySize=auto;html=1;exitX=0.5;exitY=1;exitDx=0;exitDy=0;entryX=0.5;entryY=0;entryDx=0;entryDy=0;" parent="PDiKDTpNDZHU_HGJEwD4-15" source="PDiKDTpNDZHU_HGJEwD4-3" target="PDiKDTpNDZHU_HGJEwD4-8" edge="1">
                    <mxGeometry relative="1" as="geometry"/>
                </mxCell>
                <mxCell id="PDiKDTpNDZHU_HGJEwD4-10" value="cell" style="rounded=0;whiteSpace=wrap;html=1;fillColor=none;" parent="PDiKDTpNDZHU_HGJEwD4-15" vertex="1">
                    <mxGeometry y="160" width="180" height="20" as="geometry"/>
                </mxCell>
                <mxCell id="PDiKDTpNDZHU_HGJEwD4-11" value="" style="edgeStyle=orthogonalEdgeStyle;rounded=0;orthogonalLoop=1;jettySize=auto;html=1;" parent="PDiKDTpNDZHU_HGJEwD4-15" source="PDiKDTpNDZHU_HGJEwD4-8" target="PDiKDTpNDZHU_HGJEwD4-10" edge="1">
                    <mxGeometry relative="1" as="geometry"/>
                </mxCell>
                <mxCell id="PDiKDTpNDZHU_HGJEwD4-20" style="edgeStyle=orthogonalEdgeStyle;curved=1;rounded=0;orthogonalLoop=1;jettySize=auto;html=1;exitX=1;exitY=0.5;exitDx=0;exitDy=0;entryX=0;entryY=0.5;entryDx=0;entryDy=0;strokeColor=#FFFF00;" parent="qOImLRfctZHwxg6qMuq2-1" source="PDiKDTpNDZHU_HGJEwD4-3" target="qOImLRfctZHwxg6qMuq2-3" edge="1">
                    <mxGeometry relative="1" as="geometry"/>
                </mxCell>
                <mxCell id="PDiKDTpNDZHU_HGJEwD4-21" value="" style="rounded=0;whiteSpace=wrap;html=1;fillColor=none;" parent="qOImLRfctZHwxg6qMuq2-1" vertex="1">
                    <mxGeometry x="1200" y="473.5" width="150" height="113" as="geometry"/>
                </mxCell>
                <mxCell id="PDiKDTpNDZHU_HGJEwD4-23" value="&lt;h1&gt;Parse&lt;/h1&gt;&lt;p&gt;HDL语言的解析&lt;/p&gt;" style="text;html=1;fillColor=none;spacing=5;spacingTop=-20;whiteSpace=wrap;overflow=hidden;rounded=0;strokeColor=#f0f0f0;" parent="qOImLRfctZHwxg6qMuq2-1" vertex="1">
                    <mxGeometry x="550" y="290" width="190" height="120" as="geometry"/>
                </mxCell>
                <mxCell id="PDiKDTpNDZHU_HGJEwD4-24" style="edgeStyle=orthogonalEdgeStyle;curved=1;rounded=0;orthogonalLoop=1;jettySize=auto;html=1;exitX=0;exitY=0.5;exitDx=0;exitDy=0;entryX=0.5;entryY=1;entryDx=0;entryDy=0;strokeColor=#FFFFFF;" parent="qOImLRfctZHwxg6qMuq2-1" source="PDiKDTpNDZHU_HGJEwD4-2" target="PDiKDTpNDZHU_HGJEwD4-23" edge="1">
                    <mxGeometry relative="1" as="geometry"/>
                </mxCell>
                <mxCell id="mVjKKUgkW_QFu3QTIU2m-1" style="edgeStyle=orthogonalEdgeStyle;curved=1;rounded=0;orthogonalLoop=1;jettySize=auto;html=1;exitX=0.5;exitY=0;exitDx=0;exitDy=0;entryX=0.5;entryY=0;entryDx=0;entryDy=0;strokeColor=#FFFFFF;" parent="qOImLRfctZHwxg6qMuq2-1" source="mVjKKUgkW_QFu3QTIU2m-0" target="qOImLRfctZHwxg6qMuq2-3" edge="1">
                    <mxGeometry relative="1" as="geometry">
                        <Array as="points">
                            <mxPoint x="1465" y="240"/>
                            <mxPoint x="1275" y="240"/>
                        </Array>
                    </mxGeometry>
                </mxCell>
                <mxCell id="hq1yx4_GY3kp14Jz0qJu-7" value="" style="edgeStyle=orthogonalEdgeStyle;rounded=0;orthogonalLoop=1;jettySize=auto;html=1;exitX=1;exitY=0.5;exitDx=0;exitDy=0;" parent="qOImLRfctZHwxg6qMuq2-1" source="mVjKKUgkW_QFu3QTIU2m-0" target="hq1yx4_GY3kp14Jz0qJu-6" edge="1">
                    <mxGeometry relative="1" as="geometry">
                        <mxPoint x="1580" y="360" as="sourcePoint"/>
                    </mxGeometry>
                </mxCell>
                <mxCell id="hq1yx4_GY3kp14Jz0qJu-11" style="edgeStyle=orthogonalEdgeStyle;rounded=0;orthogonalLoop=1;jettySize=auto;html=1;exitX=1;exitY=0.5;exitDx=0;exitDy=0;entryX=0;entryY=0.5;entryDx=0;entryDy=0;" parent="qOImLRfctZHwxg6qMuq2-1" source="mVjKKUgkW_QFu3QTIU2m-0" target="hq1yx4_GY3kp14Jz0qJu-9" edge="1">
                    <mxGeometry relative="1" as="geometry"/>
                </mxCell>
                <mxCell id="hq1yx4_GY3kp14Jz0qJu-12" style="edgeStyle=orthogonalEdgeStyle;rounded=0;orthogonalLoop=1;jettySize=auto;html=1;exitX=1;exitY=0.5;exitDx=0;exitDy=0;entryX=0;entryY=0.5;entryDx=0;entryDy=0;" parent="qOImLRfctZHwxg6qMuq2-1" source="mVjKKUgkW_QFu3QTIU2m-0" target="hq1yx4_GY3kp14Jz0qJu-10" edge="1">
                    <mxGeometry relative="1" as="geometry"/>
                </mxCell>
                <mxCell id="mVjKKUgkW_QFu3QTIU2m-0" value="" style="rounded=0;whiteSpace=wrap;html=1;fillColor=none;" parent="qOImLRfctZHwxg6qMuq2-1" vertex="1">
                    <mxGeometry x="1390" y="287" width="150" height="113" as="geometry"/>
                </mxCell>
                <mxCell id="mVjKKUgkW_QFu3QTIU2m-4" style="edgeStyle=orthogonalEdgeStyle;curved=1;rounded=0;orthogonalLoop=1;jettySize=auto;html=1;exitX=1;exitY=0.5;exitDx=0;exitDy=0;entryX=0;entryY=0.5;entryDx=0;entryDy=0;strokeColor=#FFFFFF;" parent="qOImLRfctZHwxg6qMuq2-1" source="PDiKDTpNDZHU_HGJEwD4-8" target="PDiKDTpNDZHU_HGJEwD4-21" edge="1">
                    <mxGeometry relative="1" as="geometry"/>
                </mxCell>
                <mxCell id="mVjKKUgkW_QFu3QTIU2m-5" value="" style="rounded=0;whiteSpace=wrap;html=1;strokeColor=#f0f0f0;fillColor=none;dashed=1;" parent="qOImLRfctZHwxg6qMuq2-1" vertex="1">
                    <mxGeometry x="1185" y="200" width="370" height="410" as="geometry"/>
                </mxCell>
                <mxCell id="hq1yx4_GY3kp14Jz0qJu-0" value="文件发生改动" style="text;html=1;strokeColor=none;fillColor=none;align=center;verticalAlign=middle;whiteSpace=wrap;rounded=0;" parent="qOImLRfctZHwxg6qMuq2-1" vertex="1">
                    <mxGeometry x="1330" y="420" width="80" height="20" as="geometry"/>
                </mxCell>
                <mxCell id="hq1yx4_GY3kp14Jz0qJu-1" value="更新数据库重新监测" style="text;html=1;strokeColor=none;fillColor=none;align=center;verticalAlign=middle;whiteSpace=wrap;rounded=0;" parent="qOImLRfctZHwxg6qMuq2-1" vertex="1">
                    <mxGeometry x="1315" y="220" width="110" height="20" as="geometry"/>
                </mxCell>
                <mxCell id="hq1yx4_GY3kp14Jz0qJu-2" value="Monitor" style="text;html=1;strokeColor=none;fillColor=none;align=center;verticalAlign=middle;whiteSpace=wrap;rounded=0;" parent="qOImLRfctZHwxg6qMuq2-1" vertex="1">
                    <mxGeometry x="1200" y="267" width="50" height="20" as="geometry"/>
                </mxCell>
                <mxCell id="hq1yx4_GY3kp14Jz0qJu-5" value="主要监测三类文件，分别是HDL，log以及property.json&lt;br&gt;HDL: 更新工程HDLparam&lt;br&gt;log：显示第三方工具使用过程中的日志&lt;br&gt;property.json: 工程结构和lib的实时更新" style="text;html=1;strokeColor=none;fillColor=none;align=left;verticalAlign=middle;whiteSpace=wrap;rounded=0;" parent="qOImLRfctZHwxg6qMuq2-1" vertex="1">
                    <mxGeometry x="1200" y="300" width="150" height="100" as="geometry"/>
                </mxCell>
                <mxCell id="hq1yx4_GY3kp14Jz0qJu-6" value="&lt;font style=&quot;font-size: 15px&quot;&gt;Tree View&lt;/font&gt;&lt;br&gt;&lt;br&gt;&lt;br&gt;&lt;br&gt;&lt;br&gt;&lt;br&gt;&lt;br&gt;" style="rounded=0;whiteSpace=wrap;html=1;fillColor=none;align=left;" parent="qOImLRfctZHwxg6qMuq2-1" vertex="1">
                    <mxGeometry x="1650" y="287" width="150" height="113" as="geometry"/>
                </mxCell>
                <mxCell id="hq1yx4_GY3kp14Jz0qJu-8" value="最新数据库" style="text;html=1;strokeColor=none;fillColor=none;align=center;verticalAlign=middle;whiteSpace=wrap;rounded=0;" parent="qOImLRfctZHwxg6qMuq2-1" vertex="1">
                    <mxGeometry x="1550" y="320" width="90" height="20" as="geometry"/>
                </mxCell>
                <mxCell id="hq1yx4_GY3kp14Jz0qJu-9" value="&lt;font style=&quot;font-size: 16px&quot;&gt;Web View&lt;/font&gt;&lt;br&gt;&lt;br&gt;&lt;br&gt;&lt;br&gt;&lt;br&gt;&lt;br&gt;&lt;br&gt;" style="rounded=0;whiteSpace=wrap;html=1;fillColor=none;align=left;" parent="qOImLRfctZHwxg6qMuq2-1" vertex="1">
                    <mxGeometry x="1650" y="420" width="150" height="113" as="geometry"/>
                </mxCell>
                <mxCell id="hq1yx4_GY3kp14Jz0qJu-10" value="&lt;div&gt;&lt;span style=&quot;font-size: 16px&quot;&gt;第三方仿真工具&lt;/span&gt;&lt;/div&gt;&lt;br&gt;&lt;br&gt;&lt;br&gt;&lt;br&gt;&lt;br&gt;&lt;br&gt;" style="rounded=0;whiteSpace=wrap;html=1;fillColor=none;align=left;" parent="qOImLRfctZHwxg6qMuq2-1" vertex="1">
                    <mxGeometry x="1650" y="550" width="150" height="113" as="geometry"/>
                </mxCell>
            </root>
        </mxGraphModel>
    </diagram>
    <diagram id="l50Op9LjmLVcln9YL1NZ" name="IC设计流程">
        <mxGraphModel dx="825" dy="479" grid="1" gridSize="10" guides="1" tooltips="1" connect="1" arrows="1" fold="1" page="1" pageScale="1" pageWidth="2336" pageHeight="1654" math="0" shadow="0">
            <root>
                <mxCell id="8WYIxfV6xZUhr8BQMb0D-0"/>
                <mxCell id="8WYIxfV6xZUhr8BQMb0D-1" parent="8WYIxfV6xZUhr8BQMb0D-0"/>
                <mxCell id="-YLL8AaoLSVC0dxfMeJJ-1" value="" style="edgeStyle=orthogonalEdgeStyle;rounded=0;orthogonalLoop=1;jettySize=auto;html=1;" edge="1" parent="8WYIxfV6xZUhr8BQMb0D-1" source="8WYIxfV6xZUhr8BQMb0D-2" target="-YLL8AaoLSVC0dxfMeJJ-0">
                    <mxGeometry relative="1" as="geometry"/>
                </mxCell>
                <mxCell id="8WYIxfV6xZUhr8BQMb0D-2" value="&lt;font style=&quot;font-size: 16px&quot;&gt;Logic Design&lt;/font&gt;" style="rounded=0;whiteSpace=wrap;html=1;fillColor=none;" parent="8WYIxfV6xZUhr8BQMb0D-1" vertex="1">
                    <mxGeometry x="580" y="200" width="120" height="60" as="geometry"/>
                </mxCell>
                <mxCell id="-YLL8AaoLSVC0dxfMeJJ-3" value="" style="edgeStyle=orthogonalEdgeStyle;rounded=0;orthogonalLoop=1;jettySize=auto;html=1;" edge="1" parent="8WYIxfV6xZUhr8BQMb0D-1" source="-YLL8AaoLSVC0dxfMeJJ-0" target="-YLL8AaoLSVC0dxfMeJJ-2">
                    <mxGeometry relative="1" as="geometry"/>
                </mxCell>
                <mxCell id="-YLL8AaoLSVC0dxfMeJJ-0" value="&lt;font style=&quot;font-size: 16px&quot;&gt;Logic Synthesis&lt;/font&gt;" style="rounded=0;whiteSpace=wrap;html=1;fillColor=none;" vertex="1" parent="8WYIxfV6xZUhr8BQMb0D-1">
                    <mxGeometry x="580" y="320" width="120" height="60" as="geometry"/>
                </mxCell>
                <mxCell id="-YLL8AaoLSVC0dxfMeJJ-5" value="" style="edgeStyle=orthogonalEdgeStyle;rounded=0;orthogonalLoop=1;jettySize=auto;html=1;" edge="1" parent="8WYIxfV6xZUhr8BQMb0D-1" source="-YLL8AaoLSVC0dxfMeJJ-2" target="-YLL8AaoLSVC0dxfMeJJ-4">
                    <mxGeometry relative="1" as="geometry"/>
                </mxCell>
                <mxCell id="-YLL8AaoLSVC0dxfMeJJ-2" value="&lt;font style=&quot;font-size: 16px&quot;&gt;Floor&amp;nbsp; &amp;nbsp;Plan&lt;br&gt;Power Plan&lt;/font&gt;" style="rounded=0;whiteSpace=wrap;html=1;fillColor=none;" vertex="1" parent="8WYIxfV6xZUhr8BQMb0D-1">
                    <mxGeometry x="580" y="440" width="120" height="60" as="geometry"/>
                </mxCell>
                <mxCell id="-YLL8AaoLSVC0dxfMeJJ-7" value="" style="edgeStyle=orthogonalEdgeStyle;rounded=0;orthogonalLoop=1;jettySize=auto;html=1;" edge="1" parent="8WYIxfV6xZUhr8BQMb0D-1" source="-YLL8AaoLSVC0dxfMeJJ-4" target="-YLL8AaoLSVC0dxfMeJJ-6">
                    <mxGeometry relative="1" as="geometry"/>
                </mxCell>
                <mxCell id="-YLL8AaoLSVC0dxfMeJJ-4" value="&lt;font style=&quot;font-size: 16px&quot;&gt;STD CELL&lt;br&gt;PLACE EMEENT&lt;/font&gt;" style="rounded=0;whiteSpace=wrap;html=1;fillColor=none;" vertex="1" parent="8WYIxfV6xZUhr8BQMb0D-1">
                    <mxGeometry x="580" y="560" width="120" height="60" as="geometry"/>
                </mxCell>
                <mxCell id="-YLL8AaoLSVC0dxfMeJJ-9" value="" style="edgeStyle=orthogonalEdgeStyle;rounded=0;orthogonalLoop=1;jettySize=auto;html=1;" edge="1" parent="8WYIxfV6xZUhr8BQMb0D-1" source="-YLL8AaoLSVC0dxfMeJJ-6" target="-YLL8AaoLSVC0dxfMeJJ-8">
                    <mxGeometry relative="1" as="geometry"/>
                </mxCell>
                <mxCell id="-YLL8AaoLSVC0dxfMeJJ-6" value="&lt;font style=&quot;font-size: 16px&quot;&gt;Clock Tree&lt;br&gt;Synthesis&lt;/font&gt;" style="rounded=0;whiteSpace=wrap;html=1;fillColor=none;" vertex="1" parent="8WYIxfV6xZUhr8BQMb0D-1">
                    <mxGeometry x="580" y="690" width="120" height="60" as="geometry"/>
                </mxCell>
                <mxCell id="-YLL8AaoLSVC0dxfMeJJ-11" value="" style="edgeStyle=orthogonalEdgeStyle;rounded=0;orthogonalLoop=1;jettySize=auto;html=1;" edge="1" parent="8WYIxfV6xZUhr8BQMb0D-1" source="-YLL8AaoLSVC0dxfMeJJ-8" target="-YLL8AaoLSVC0dxfMeJJ-10">
                    <mxGeometry relative="1" as="geometry"/>
                </mxCell>
                <mxCell id="-YLL8AaoLSVC0dxfMeJJ-8" value="&lt;font style=&quot;font-size: 16px&quot;&gt;&lt;font style=&quot;font-size: 16px&quot;&gt;Globa&lt;/font&gt;l Router&lt;/font&gt;" style="whiteSpace=wrap;html=1;rounded=0;fillColor=none;" vertex="1" parent="8WYIxfV6xZUhr8BQMb0D-1">
                    <mxGeometry x="580" y="827" width="120" height="60" as="geometry"/>
                </mxCell>
                <mxCell id="-YLL8AaoLSVC0dxfMeJJ-13" value="" style="edgeStyle=orthogonalEdgeStyle;rounded=0;orthogonalLoop=1;jettySize=auto;html=1;" edge="1" parent="8WYIxfV6xZUhr8BQMb0D-1" source="-YLL8AaoLSVC0dxfMeJJ-10" target="-YLL8AaoLSVC0dxfMeJJ-12">
                    <mxGeometry relative="1" as="geometry"/>
                </mxCell>
                <mxCell id="-YLL8AaoLSVC0dxfMeJJ-10" value="&lt;font style=&quot;font-size: 16px&quot;&gt;Detailed Router&lt;/font&gt;" style="whiteSpace=wrap;html=1;rounded=0;fillColor=none;" vertex="1" parent="8WYIxfV6xZUhr8BQMb0D-1">
                    <mxGeometry x="580" y="960" width="120" height="60" as="geometry"/>
                </mxCell>
                <mxCell id="-YLL8AaoLSVC0dxfMeJJ-15" value="" style="edgeStyle=orthogonalEdgeStyle;rounded=0;orthogonalLoop=1;jettySize=auto;html=1;" edge="1" parent="8WYIxfV6xZUhr8BQMb0D-1" source="-YLL8AaoLSVC0dxfMeJJ-12" target="-YLL8AaoLSVC0dxfMeJJ-14">
                    <mxGeometry relative="1" as="geometry"/>
                </mxCell>
                <mxCell id="-YLL8AaoLSVC0dxfMeJJ-12" value="&lt;font style=&quot;font-size: 16px&quot;&gt;Layout&lt;br&gt;Finishing&lt;/font&gt;" style="whiteSpace=wrap;html=1;rounded=0;fillColor=none;strokeColor=#FF9933;" vertex="1" parent="8WYIxfV6xZUhr8BQMb0D-1">
                    <mxGeometry x="580" y="1090" width="120" height="60" as="geometry"/>
                </mxCell>
                <mxCell id="-YLL8AaoLSVC0dxfMeJJ-17" value="" style="edgeStyle=orthogonalEdgeStyle;rounded=0;orthogonalLoop=1;jettySize=auto;html=1;" edge="1" parent="8WYIxfV6xZUhr8BQMb0D-1" source="-YLL8AaoLSVC0dxfMeJJ-14" target="-YLL8AaoLSVC0dxfMeJJ-16">
                    <mxGeometry relative="1" as="geometry"/>
                </mxCell>
                <mxCell id="-YLL8AaoLSVC0dxfMeJJ-14" value="&lt;font style=&quot;font-size: 16px&quot;&gt;Parasitic&lt;br&gt;Extraction/SI&lt;/font&gt;" style="whiteSpace=wrap;html=1;rounded=0;fillColor=none;strokeColor=#FFFFFF;" vertex="1" parent="8WYIxfV6xZUhr8BQMb0D-1">
                    <mxGeometry x="580" y="1220" width="120" height="60" as="geometry"/>
                </mxCell>
                <mxCell id="-YLL8AaoLSVC0dxfMeJJ-16" value="&lt;font style=&quot;font-size: 16px&quot;&gt;Static &lt;br&gt;Timing &lt;br&gt;Analysis&lt;/font&gt;" style="whiteSpace=wrap;html=1;rounded=0;strokeColor=#FFFFFF;fillColor=none;" vertex="1" parent="8WYIxfV6xZUhr8BQMb0D-1">
                    <mxGeometry x="580" y="1350" width="120" height="60" as="geometry"/>
                </mxCell>
            </root>
        </mxGraphModel>
    </diagram>
    <diagram id="Jakpc1tXUsp9nxr-AQzc" name="工程管理">
        <mxGraphModel dx="990" dy="575" grid="1" gridSize="10" guides="1" tooltips="1" connect="1" arrows="1" fold="1" page="1" pageScale="1" pageWidth="827" pageHeight="1169" math="0" shadow="0">
            <root>
                <mxCell id="FAa1FaSoYhkI8R7KHqlk-0"/>
                <mxCell id="FAa1FaSoYhkI8R7KHqlk-1" parent="FAa1FaSoYhkI8R7KHqlk-0"/>
                <mxCell id="FAa1FaSoYhkI8R7KHqlk-2" value="" style="rounded=1;whiteSpace=wrap;html=1;fillColor=none;" vertex="1" parent="FAa1FaSoYhkI8R7KHqlk-1">
                    <mxGeometry x="360" y="180" width="90" height="50" as="geometry"/>
                </mxCell>
            </root>
        </mxGraphModel>
    </diagram>
</mxfile>